# xmcd
#
# Track frame offsets:
#	150
#	20519
#	40913
#	55136
#	78238
#	100683
#	129719
#	151448
#	163619
#	181269
#	204589
#	220773
#	236788
#	258507
#	273047
#	296654
#	318252
#	335132
#
# Disc length: 4758 seconds
#
# Revision: 1
# Processed by: cddbd v1.4PL0 Copyright (c) Steve Scherf et al.
# Submitted via: EasyCDDAExtractor 5.0.6
#
DISCID=01129412
DTITLE=Maciej Zembaty - 35x Leonard Cohen - spiewa Maciej Zembaty CD2/CD3
DYEAR=2002
DGENRE=Pop
TTITLE0=Upokorzona miloscia
TTITLE1=Madonna Samotnosci
TTITLE2=Manhattan
TTITLE3=Onko
TTITLE4=Zamglone ¿ycie
TTITLE5=Rzeznik
TTITLE6=Tancz mnie po milosci kres
TTITLE7=Wciaz wojna trwa
TTITLE8=Prawo
TTITLE9=Zona Cygana
TTITLE10=Dzisiaj tu, jutro tam
TTITLE11=Lawina
TTITLE12=Goscie
TTITLE13=Kolysanka mysliwego
TTITLE14=Jesli wola Twa
TTITLE15=Alleluja
TTITLE16=Opowiadanie Izaaka
TTITLE17=Siostry Milosierdzia
EXTD=
EXTT0=
EXTT1=
EXTT2=
EXTT3=
EXTT4=
EXTT5=
EXTT6=
EXTT7=
EXTT8=
EXTT9=
EXTT10=
EXTT11=
EXTT12=
EXTT13=
EXTT14=
EXTT15=
EXTT16=
EXTT17=
PLAYORDER=
